<svg width="1792" height="1792" xmlns="http://www.w3.org/2000/svg">

 <g>
  <title>background</title>
  <rect fill="none" id="canvas_background" height="402" width="582" y="-1" x="-1"/>
 </g>
 <g>
  <title>Layer 1</title>
  <path fill="#c802a0" id="svg_1" d="m512,0q13,0 22.5,9.5t9.5,22.5l0,1472q0,20 -17,28l-480,256q-7,4 -15,4q-13,0 -22.5,-9.5t-9.5,-22.5l0,-1472q0,-20 17,-28l480,-256q7,-4 15,-4zm1248,0q13,0 22.5,9.5t9.5,22.5l0,1472q0,20 -17,28l-480,256q-7,4 -15,4q-13,0 -22.5,-9.5t-9.5,-22.5l0,-1472q0,-20 17,-28l480,-256q7,-4 15,-4zm-1120,0q8,0 14,3l512,256q18,10 18,29l0,1472q0,13 -9.5,22.5t-22.5,9.5q-8,0 -14,-3l-512,-256q-18,-10 -18,-29l0,-1472q0,-13 9.5,-22.5t22.5,-9.5z"/>
 </g>
</svg>